<svg viewBox="0 0 33 30" fill="none" xmlns="http://www.w3.org/2000/svg">
    <path
            fill-rule="evenodd"
            clip-rule="evenodd"
            d="M20.991 23.2593H25.0708L25.7946 25.3283H28.4267L24.347 14.6831H21.9123L17.8325 25.3283H20.2672L20.991 23.2593ZM23.0309 17.4862L24.347 21.1903H21.7149L23.0309 17.4862Z"
            fill="black"
    />
    <path
            d="M6.48151 9.6109C6.48151 10.0113 7.00793 10.3117 7.79756 10.3117C8.5872 10.3117 9.11362 10.0113 9.11362 9.6109C9.11362 9.21046 8.5872 8.91013 7.79756 8.91013C7.00793 8.91013 6.48151 9.24383 6.48151 9.6109Z"
            fill="black"
    />
    <path
            fill-rule="evenodd"
            clip-rule="evenodd"
            d="M19.7408 9.97754V4.20467C19.7408 1.86874 17.8983 0 15.5952 0H4.14556C1.84247 0 0 1.86874 0 4.20467V15.8176C0 18.1535 1.84247 20.0222 4.14556 20.0222H13.2593V25.7951C13.2593 28.131 15.1018 29.9998 17.4048 29.9998H28.8545C31.1576 29.9998 33.0001 28.131 33.0001 25.7951V14.1822C33.0001 11.8463 31.1247 9.97754 28.8545 9.97754H19.7408ZM14.1805 20.0222H15.5952C17.8983 20.0222 19.7408 18.1535 19.7408 15.8176V10.9119H28.8545C30.6312 10.9119 32.0788 12.3802 32.0788 14.1822V25.7951C32.0788 27.5971 30.6312 29.0654 28.8545 29.0654H17.4048C15.6282 29.0654 14.1805 27.5971 14.1805 25.7951V20.0222ZM11.5483 7.00801H4.01392V5.27275H6.67892V4.33838H8.88331V5.30612H11.5483V7.00801ZM4.37583 9.6109C4.37583 8.10924 5.92219 7.30835 7.76466 7.30835C9.60714 7.30835 11.1535 8.10924 11.1535 9.6109C11.1535 11.1126 9.60714 11.9135 7.76466 11.9135C5.92219 11.9135 4.37583 11.1459 4.37583 9.6109ZM6.94213 13.7822H14.6081V15.6843H4.73774V12.2472H6.94213V13.7822ZM15.7268 7.10812V9.24383H14.4436V12.8478H12.2721V4.50523H14.4436V7.10812H15.7268Z"
            fill="black"
    />
</svg>
