<svg viewBox="0 0 33 30" fill="none" xmlns="http://www.w3.org/2000/svg">
    <path
            fill-rule="evenodd"
            clip-rule="evenodd"
            d="M4.14556 20.0222H13.2593V25.7951C13.2593 28.131 15.1018 29.9998 17.4048 29.9998H28.8545C31.1576 29.9998 33.0001 28.131 33.0001 25.7951V14.1822C33.0001 11.8463 31.1247 9.97754 28.8545 9.97754H19.7408V4.20467C19.7408 1.86874 17.8983 0 15.5952 0H4.14556C1.84247 0 0 1.86874 0 4.20467V15.8176C0 18.1535 1.84247 20.0222 4.14556 20.0222ZM14.1805 25.7951V20.0222H15.5952C16.234 20.0222 16.8374 19.8785 17.3759 19.6208C17.3825 21.1493 18.9262 21.9135 20.7647 21.9135C22.6071 21.9135 24.1535 21.1126 24.1535 19.6109C24.1535 18.1092 22.6071 17.3083 20.7647 17.3083C20.2872 17.3083 19.8296 17.3621 19.4136 17.468C19.4757 17.319 19.5296 17.1654 19.5748 17.008H24.5483V15.3061H21.8833V14.3384H19.7408V10.9119H28.8545C30.6312 10.9119 32.0788 12.3802 32.0788 14.1822V25.7951C32.0788 27.5971 30.6312 29.0654 28.8545 29.0654H17.4048C15.6282 29.0654 14.1805 27.5971 14.1805 25.7951ZM27.6081 23.7822H19.9421V22.2472H17.7377V25.6843H27.6081V23.7822ZM20.7976 20.3117C20.0079 20.3117 19.4815 20.0113 19.4815 19.6109C19.4815 19.2438 20.0079 18.9101 20.7976 18.9101C21.5872 18.9101 22.1136 19.2105 22.1136 19.6109C22.1136 20.0113 21.5872 20.3117 20.7976 20.3117ZM28.7268 19.2438V17.1081H27.4436V14.5052H25.2721V22.8478H27.4436V19.2438H28.7268ZM7.99104 13.2593H12.0708L12.7946 15.3283H15.4267L11.347 4.68311H8.91228L4.83252 15.3283H7.26721L7.99104 13.2593ZM10.0309 7.48622L11.347 11.1903H8.71487L10.0309 7.48622Z"
            fill="black"
    />
</svg>
